<svg width="18" height="18" viewBox="0 0 18 18" fill="none" xmlns="http://www.w3.org/2000/svg">
<path d="M3.00001 17.25C3.00001 17.664 3.33601 18 3.75001 18H10.75C13.087 18 15.012 17.219 16.25 15.984C17.481 14.756 18 13.124 18 11.5C18 9.87603 17.481 8.24403 16.25 7.01603C15.012 5.78003 13.087 5.00003 10.75 5.00003H2.56001L5.78001 1.78003C5.8537 1.71137 5.9128 1.62857 5.95379 1.53657C5.99478 1.44457 6.01683 1.34526 6.0186 1.24455C6.02038 1.14385 6.00186 1.04382 5.96413 0.950434C5.92641 0.857045 5.87027 0.772212 5.79905 0.700993C5.72783 0.629774 5.643 0.57363 5.54961 0.535909C5.45622 0.498188 5.35619 0.479663 5.25549 0.48144C5.15479 0.483217 5.05547 0.505258 4.96347 0.54625C4.87147 0.587242 4.78867 0.646344 4.72001 0.720031L0.220011 5.22003C0.0795608 5.36066 0.000671387 5.55128 0.000671387 5.75003C0.000671387 5.94878 0.0795608 6.13941 0.220011 6.28003L4.72001 10.78C4.78867 10.8537 4.87147 10.9128 4.96347 10.9538C5.05547 10.9948 5.15479 11.0168 5.25549 11.0186C5.35619 11.0204 5.45622 11.0019 5.54961 10.9642C5.643 10.9264 5.72783 10.8703 5.79905 10.7991C5.87027 10.7279 5.92641 10.643 5.96413 10.5496C6.00186 10.4562 6.02038 10.3562 6.0186 10.2555C6.01683 10.1548 5.99478 10.0555 5.95379 9.96349C5.9128 9.87149 5.8537 9.78869 5.78001 9.72003L2.56001 6.50003H10.75C12.738 6.50003 14.176 7.15603 15.1 8.07803C16.031 9.00603 16.5 10.248 16.5 11.5C16.5036 12.1345 16.3818 12.7635 16.1416 13.3508C15.9013 13.938 15.5473 14.472 15.1 14.922C14.176 15.844 12.738 16.5 10.75 16.5H3.75001C3.5511 16.5 3.36033 16.579 3.21968 16.7197C3.07903 16.8604 3.00001 17.0511 3.00001 17.25Z" fill="black"/>
</svg>
