<svg width="29" height="29" viewBox="0 0 29 29" fill="none" xmlns="http://www.w3.org/2000/svg">
<g opacity="0.3">
<path d="M24.8174 10.6628C24.6813 10.4723 24.4987 10.377 24.2695 10.377H9.68164L8.56445 6.63004C8.46419 6.29133 8.32812 6.00202 8.15625 5.7621C7.98437 5.52218 7.80176 5.35282 7.6084 5.25403C7.41504 5.15524 7.24674 5.08821 7.10352 5.05292C6.96029 5.01764 6.81706 5 6.67383 5H3.73047C3.54427 5 3.38672 5.06351 3.25781 5.19052C3.12891 5.31754 3.06445 5.47984 3.06445 5.67742C3.06445 5.79032 3.0931 5.8997 3.15039 6.00554C3.20768 6.11139 3.29004 6.19254 3.39746 6.24899C3.50488 6.30544 3.61589 6.33367 3.73047 6.33367H6.67383C6.73112 6.33367 6.78483 6.34073 6.83496 6.35484C6.88509 6.36895 6.95312 6.42893 7.03906 6.53478C7.125 6.64063 7.19661 6.7994 7.25391 7.01109L11.0566 20.7712C11.0853 20.8558 11.1318 20.937 11.1963 21.0146C11.2607 21.0922 11.3359 21.1522 11.4219 21.1946C11.5078 21.2369 11.6009 21.2581 11.7012 21.2581H20.9824C21.1256 21.2581 21.2581 21.2157 21.3799 21.131C21.5016 21.0464 21.584 20.9405 21.627 20.8135L24.9141 11.2873C24.9857 11.0615 24.9534 10.8533 24.8174 10.6628ZM20.5098 19.9032H12.2383L10.0469 11.7319H23.2812L20.5098 19.9032ZM19.1562 22.6129C18.6836 22.6129 18.279 22.7787 17.9424 23.1104C17.6058 23.442 17.4375 23.8407 17.4375 24.3065C17.4375 24.7722 17.6058 25.1709 17.9424 25.5025C18.279 25.8342 18.6836 26 19.1562 26C19.6289 26 20.0335 25.8342 20.3701 25.5025C20.7067 25.1709 20.875 24.7722 20.875 24.3065C20.875 23.8407 20.7067 23.442 20.3701 23.1104C20.0335 22.7787 19.6289 22.6129 19.1562 22.6129ZM12.9687 22.6129C12.6536 22.6129 12.3636 22.6905 12.0986 22.8458C11.8337 23.001 11.626 23.2056 11.4756 23.4597C11.3252 23.7137 11.25 23.996 11.25 24.3065C11.25 24.7722 11.4183 25.1709 11.7549 25.5025C12.0915 25.8342 12.4961 26 12.9687 26C13.4414 26 13.846 25.8342 14.1826 25.5025C14.5192 25.1709 14.6875 24.7722 14.6875 24.3065C14.6875 24.1935 14.6768 24.0806 14.6553 23.9677C14.6338 23.8548 14.6016 23.749 14.5586 23.6502C14.5156 23.5514 14.4619 23.4561 14.3975 23.3644C14.333 23.2727 14.2614 23.188 14.1826 23.1104C14.1038 23.0328 14.0179 22.9622 13.9248 22.8987C13.8317 22.8352 13.735 22.7823 13.6348 22.7399C13.5345 22.6976 13.4271 22.6658 13.3125 22.6447C13.1979 22.6235 13.0833 22.6129 12.9687 22.6129Z" fill="black" stroke="black" stroke-width="0.5"/>
</g>
</svg>
