<svg width="24" height="23" viewBox="0 0 24 23" fill="none" xmlns="http://www.w3.org/2000/svg">
<path d="M22.8174 6.6628C22.6813 6.47228 22.4987 6.37702 22.2695 6.37702H7.68164L6.56445 2.63004C6.46419 2.29133 6.32812 2.00202 6.15625 1.7621C5.98437 1.52218 5.80176 1.35282 5.6084 1.25403C5.41504 1.15524 5.24674 1.08821 5.10352 1.05292C4.96029 1.01764 4.81706 1 4.67383 1H1.73047C1.54427 1 1.38672 1.06351 1.25781 1.19052C1.12891 1.31754 1.06445 1.47984 1.06445 1.67742C1.06445 1.79032 1.0931 1.8997 1.15039 2.00554C1.20768 2.11139 1.29004 2.19254 1.39746 2.24899C1.50488 2.30544 1.61589 2.33367 1.73047 2.33367H4.67383C4.73112 2.33367 4.78483 2.34073 4.83496 2.35484C4.88509 2.36895 4.95312 2.42893 5.03906 2.53478C5.125 2.64062 5.19661 2.7994 5.25391 3.01109L9.05664 16.7712C9.08529 16.8558 9.13183 16.937 9.19629 17.0146C9.26074 17.0922 9.33594 17.1522 9.42187 17.1946C9.50781 17.2369 9.60091 17.2581 9.70117 17.2581H18.9824C19.1257 17.2581 19.2581 17.2157 19.3799 17.131C19.5016 17.0464 19.584 16.9405 19.627 16.8135L22.9141 7.2873C22.9857 7.06149 22.9534 6.85333 22.8174 6.6628ZM18.5098 15.9032H10.2383L8.04687 7.73185H21.2812L18.5098 15.9032ZM17.1562 18.6129C16.6836 18.6129 16.279 18.7787 15.9424 19.1104C15.6058 19.442 15.4375 19.8407 15.4375 20.3065C15.4375 20.7722 15.6058 21.1709 15.9424 21.5025C16.279 21.8342 16.6836 22 17.1562 22C17.6289 22 18.0335 21.8342 18.3701 21.5025C18.7067 21.1709 18.875 20.7722 18.875 20.3065C18.875 19.8407 18.7067 19.442 18.3701 19.1104C18.0335 18.7787 17.6289 18.6129 17.1562 18.6129ZM10.9687 18.6129C10.6536 18.6129 10.3636 18.6905 10.0986 18.8458C9.83366 19.001 9.62598 19.2056 9.47558 19.4597C9.32519 19.7137 9.25 19.996 9.25 20.3065C9.25 20.7722 9.41829 21.1709 9.75488 21.5025C10.0915 21.8342 10.4961 22 10.9687 22C11.4414 22 11.846 21.8342 12.1826 21.5025C12.5192 21.1709 12.6875 20.7722 12.6875 20.3065C12.6875 20.1935 12.6768 20.0806 12.6553 19.9677C12.6338 19.8548 12.6016 19.749 12.5586 19.6502C12.5156 19.5514 12.4619 19.4562 12.3975 19.3644C12.333 19.2727 12.2614 19.188 12.1826 19.1104C12.1038 19.0328 12.0179 18.9622 11.9248 18.8987C11.8317 18.8352 11.735 18.7823 11.6348 18.7399C11.5345 18.6976 11.4271 18.6658 11.3125 18.6447C11.1979 18.6235 11.0833 18.6129 10.9687 18.6129Z" fill="black" stroke="black" stroke-width="0.5"/>
</svg>
