<svg width="30" height="27" viewBox="0 0 30 27" fill="none" xmlns="http://www.w3.org/2000/svg">
<path d="M28.1791 7.06704L28.1792 7.06711C28.6633 7.84903 28.6629 8.7822 28.3243 9.5214C27.986 10.2597 27.3419 10.75 26.5641 10.75H3.43594C2.65805 10.75 2.01365 10.2596 1.67529 9.52108C1.33654 8.78174 1.33615 7.84854 1.8207 7.06672L1.82084 7.06649C4.07305 3.42809 9.08446 0.505872 15 0.5C20.9161 0.505871 25.9269 3.42808 28.1791 7.06704ZM1.17732 14.3023C1.61099 13.8686 2.19919 13.625 2.8125 13.625H27.1875C27.8008 13.625 28.389 13.8686 28.8227 14.3023C29.2564 14.736 29.5 15.3242 29.5 15.9375C29.5 16.5508 29.2564 17.139 28.8227 17.5727C28.389 18.0064 27.8008 18.25 27.1875 18.25H2.8125C2.19919 18.25 1.61099 18.0064 1.17732 17.5727C0.743638 17.139 0.5 16.5508 0.5 15.9375C0.5 15.3242 0.743638 14.736 1.17732 14.3023ZM1.56564 21.2531C1.64769 21.1711 1.75897 21.125 1.875 21.125H28.125C28.241 21.125 28.3523 21.1711 28.4344 21.2531C28.5164 21.3352 28.5625 21.4465 28.5625 21.5625V22.5C28.5625 23.362 28.2201 24.1886 27.6106 24.7981C27.0011 25.4076 26.1745 25.75 25.3125 25.75H4.6875C3.82555 25.75 2.9989 25.4076 2.3894 24.7981C1.77991 24.1886 1.4375 23.362 1.4375 22.5V21.5625C1.4375 21.4465 1.48359 21.3352 1.56564 21.2531ZM23.2986 4.42976C23.0622 4.27181 22.7843 4.1875 22.5 4.1875C22.1188 4.1875 21.7531 4.33895 21.4835 4.60853C21.2139 4.87812 21.0625 5.24375 21.0625 5.625C21.0625 5.90931 21.1468 6.18724 21.3048 6.42363C21.4627 6.66003 21.6872 6.84428 21.9499 6.95308C22.2126 7.06188 22.5016 7.09035 22.7804 7.03488C23.0593 6.97941 23.3154 6.8425 23.5165 6.64147C23.7175 6.44043 23.8544 6.18429 23.9099 5.90544C23.9653 5.62659 23.9369 5.33756 23.8281 5.07489C23.7193 4.81222 23.535 4.58772 23.2986 4.42976ZM15.7986 2.55476C15.5622 2.39681 15.2843 2.3125 15 2.3125C14.6188 2.3125 14.2531 2.46395 13.9835 2.73353C13.714 3.00312 13.5625 3.36875 13.5625 3.75C13.5625 4.03431 13.6468 4.31224 13.8048 4.54863C13.9627 4.78503 14.1872 4.96928 14.4499 5.07808C14.7126 5.18688 15.0016 5.21534 15.2804 5.15988C15.5593 5.10441 15.8154 4.9675 16.0165 4.76647C16.2175 4.56543 16.3544 4.30929 16.4099 4.03044C16.4653 3.75159 16.4369 3.46256 16.3281 3.19989C16.2193 2.93722 16.035 2.71272 15.7986 2.55476ZM8.29863 4.42976C8.06224 4.27181 7.78431 4.1875 7.5 4.1875C7.11875 4.1875 6.75312 4.33895 6.48353 4.60853C6.21395 4.87812 6.0625 5.24375 6.0625 5.625C6.0625 5.90931 6.14681 6.18724 6.30476 6.42363C6.46272 6.66003 6.68722 6.84428 6.94989 6.95308C7.21256 7.06188 7.50159 7.09035 7.78044 7.03488C8.05929 6.97941 8.31543 6.8425 8.51647 6.64147C8.7175 6.44043 8.85441 6.18429 8.90988 5.90544C8.96535 5.62659 8.93688 5.33756 8.82808 5.07489C8.71928 4.81222 8.53503 4.58772 8.29863 4.42976Z" fill="#EAFFF2" stroke="#008132"/>
</svg>
