<svg width="37" height="37" viewBox="0 0 37 37" fill="none" xmlns="http://www.w3.org/2000/svg">
<path d="M18.5129 13.1324L18.5424 13.1294L18.5714 13.1229C19.4262 12.932 20.8867 12.8995 22.6409 13.0075C24.3797 13.1146 26.3583 13.3564 28.2228 13.6894C30.0911 14.023 31.8249 14.4447 33.0816 14.9059C33.7132 15.1377 34.1976 15.37 34.5148 15.5906C34.673 15.7006 34.7708 15.7948 34.8255 15.8679C34.8518 15.9031 34.8645 15.9284 34.8703 15.9437C34.8732 15.9512 34.8744 15.9561 34.8749 15.9588C34.8754 15.9615 34.8754 15.9626 34.8754 15.9627C34.8754 16.0047 34.8757 16.0516 34.8759 16.1033C34.8824 17.3325 34.903 21.2837 32.023 25.4934C29.6894 28.8999 25.967 32.0398 19.1272 32.0398C12.1297 32.0398 7.8929 29.1727 5.48591 26.2337C2.16479 22.1768 2.13049 18.2262 2.11539 16.4879C2.11408 16.3364 2.11291 16.2018 2.10973 16.0853C2.11049 16.0846 2.11126 16.084 2.11206 16.0833C2.17924 16.0252 2.30745 15.9449 2.51735 15.8501C2.932 15.6627 3.55271 15.4678 4.33299 15.2723C5.88602 14.8834 7.97594 14.5154 10.0834 14.1971C12.1874 13.8793 14.295 13.6131 15.8776 13.4262C16.6687 13.3328 17.3279 13.2593 17.7893 13.2092C18.02 13.1841 18.2011 13.1649 18.3245 13.1519L18.4652 13.1373L18.501 13.1336L18.51 13.1327L18.5123 13.1324L18.5128 13.1324C18.5129 13.1324 18.5129 13.1324 18.4624 12.6349L18.5129 13.1324ZM2.07771 16.1176C2.07757 16.1176 2.0785 16.1162 2.08092 16.1134C2.07906 16.1162 2.07785 16.1176 2.07771 16.1176Z" fill="#EAFFF2" stroke="#008132"/>
<path d="M26.7807 12.7824L26.7806 12.7826L26.7805 12.7827L26.7803 12.783L26.7802 12.7832L26.6775 12.9755L26.7495 13.1822L29.3651 20.6967C29.3549 20.7003 29.3446 20.7039 29.3342 20.7076C29.0245 20.8165 28.5908 20.9659 28.0953 21.1274C27.0989 21.4521 25.8727 21.8191 24.9038 22.0094C23.8786 22.2106 22.5302 22.3341 21.4236 22.4069C20.8734 22.4431 20.3885 22.4664 20.0413 22.4807C19.907 22.4863 19.7934 22.4904 19.7047 22.4934L14.4967 17.1448L14.0314 13.113L15.2843 10.9049L18.5836 7.36385L26.5931 9.77372C26.596 9.77625 26.5991 9.77892 26.6023 9.78171C26.6475 9.8211 26.7145 9.88573 26.7879 9.97761C26.9335 10.1599 27.1058 10.451 27.1845 10.8734C27.2567 11.2691 27.1712 11.7342 27.0434 12.1348C26.9815 12.3288 26.9141 12.4942 26.8624 12.6105C26.8366 12.6684 26.8151 12.7135 26.8005 12.7431C26.7932 12.7579 26.7876 12.7688 26.7842 12.7755L26.7807 12.7823L26.7807 12.7824Z" fill="#EAFFF2" stroke="#008132"/>
<path d="M29.329 9.57711C29.4925 9.47827 29.6812 9.46343 29.8923 9.59787C30.0524 9.70026 30.1423 9.90641 30.1638 10.1991C30.1738 10.335 30.1664 10.4635 30.1558 10.5593C30.1506 10.6065 30.1448 10.644 30.1407 10.6682C30.1386 10.6803 30.137 10.689 30.136 10.6939L30.1352 10.6979L30.1352 10.698L30.1351 10.6981L29.8056 12.1953L30.9501 11.1827C30.9508 11.1822 30.9516 11.1815 30.9527 11.1807C30.9588 11.1761 30.9708 11.1673 30.9878 11.1567C31.0231 11.1348 31.072 11.1098 31.128 11.0939C31.2212 11.0674 31.3516 11.0561 31.5256 11.1943C31.5611 11.223 31.614 11.2922 31.6603 11.4364C31.7053 11.577 31.731 11.7486 31.7419 11.9277C31.7526 12.1042 31.748 12.2712 31.7403 12.3953C31.7365 12.4568 31.7321 12.5064 31.7287 12.5397C31.727 12.5563 31.7256 12.5688 31.7247 12.5765L31.7237 12.5845L31.7237 12.585L31.7236 12.5852L31.7236 12.5854L31.7236 12.5856L31.7236 12.5858L31.504 14.2392L32.5963 12.9793L32.5965 12.9791L32.5967 12.9788L32.5969 12.9786L32.5971 12.9784L32.5972 12.9783L32.604 12.9706C32.6108 12.9632 32.6218 12.9512 32.6368 12.9355C32.6668 12.9039 32.7122 12.858 32.7702 12.8042C32.8876 12.6951 33.0491 12.5608 33.2331 12.4482C33.6248 12.2082 33.9599 12.1519 34.2334 12.335C34.3523 12.4146 34.4497 12.5612 34.5061 12.8127C34.5629 13.0655 34.5658 13.3744 34.5346 13.6938C34.5039 14.0088 34.4427 14.3082 34.3881 14.5311C34.361 14.6418 34.336 14.7318 34.3181 14.7932C34.3091 14.8239 34.302 14.8473 34.2972 14.8625L34.2921 14.879L34.291 14.8823L34.291 14.8823L34.2909 14.8825L34.2909 14.8826L34.2908 14.8827L34.2787 14.9198L34.2724 14.9588L34.0207 16.5166L28.7745 14.5069C28.7727 14.5042 28.7708 14.5015 28.7689 14.4987C28.6928 14.389 28.5765 14.2503 28.4081 14.1174C28.0612 13.8436 27.5307 13.6245 26.7708 13.6814L26.7707 13.6814C25.9812 13.7406 25.3999 14.1353 25.0294 14.4911C25.0152 14.5047 25.0013 14.5183 24.9876 14.5319C24.9737 14.5013 24.9596 14.4699 24.9455 14.4378C24.742 13.9765 24.5461 13.4163 24.5053 12.9273C24.4699 12.5027 24.6162 12.1837 24.8061 11.9685C25.0169 11.7297 25.2341 11.6651 25.2847 11.6651C25.7378 11.6651 25.9683 11.7954 26.1887 11.9381C26.2107 11.9524 26.2342 11.9681 26.2591 11.9848C26.4849 12.1363 26.8296 12.3676 27.3303 12.3221C27.8586 12.274 28.2238 11.998 28.4627 11.5976C28.6787 11.2355 28.7945 10.7677 28.8883 10.2974L28.8883 10.2971C28.9616 9.92865 29.1471 9.68706 29.329 9.57711Z" fill="#EAFFF2" stroke="#008132"/>
<mask id="path-4-inside-1_2_368" fill="white">
<path d="M13.1609 16.5604C13.1609 16.5604 14.2305 14.3895 16.5574 15.1151C18.9971 15.8753 18.5115 16.5604 18.5115 16.5604C18.5115 16.5604 19.7685 16.624 20.4999 16.5604C21.2312 16.4968 23.4999 14.4999 23.4999 14.4999H21.9999C21.9999 14.4999 19.8672 16.7136 18.9248 15.6036C17.6587 14.1091 18.5115 12.3892 18.5115 12.3892L18.7341 11.3081L16.5054 9.87437L14.9762 7.90007C14.9762 7.90007 14.4675 6.78718 13.0973 6.72359C11.7272 6.66 11.0826 7.62546 11.0826 7.62546C11.0826 7.62546 8.14858 6.77851 6.65124 8.05039C5.63952 8.91179 5.90257 10.3224 5.90257 10.3224C5.90257 10.3224 5.19147 10.7444 3.96296 9.7125C3.41663 9.25289 2.3471 9.60265 2.18812 10.4641C2.02913 11.3226 2.37022 12.395 2.37022 12.395L1.38452 12.9991L4.72608 16.4361L13.1609 16.5604Z"/>
</mask>
<path d="M13.1609 16.5604C13.1609 16.5604 14.2305 14.3895 16.5574 15.1151C18.9971 15.8753 18.5115 16.5604 18.5115 16.5604C18.5115 16.5604 19.7685 16.624 20.4999 16.5604C21.2312 16.4968 23.4999 14.4999 23.4999 14.4999H21.9999C21.9999 14.4999 19.8672 16.7136 18.9248 15.6036C17.6587 14.1091 18.5115 12.3892 18.5115 12.3892L18.7341 11.3081L16.5054 9.87437L14.9762 7.90007C14.9762 7.90007 14.4675 6.78718 13.0973 6.72359C11.7272 6.66 11.0826 7.62546 11.0826 7.62546C11.0826 7.62546 8.14858 6.77851 6.65124 8.05039C5.63952 8.91179 5.90257 10.3224 5.90257 10.3224C5.90257 10.3224 5.19147 10.7444 3.96296 9.7125C3.41663 9.25289 2.3471 9.60265 2.18812 10.4641C2.02913 11.3226 2.37022 12.395 2.37022 12.395L1.38452 12.9991L4.72608 16.4361L13.1609 16.5604Z" fill="#EAFFF2"/>
<path d="M13.1609 16.5604L13.1462 17.5603L13.7785 17.5696L14.058 17.0023L13.1609 16.5604ZM16.5574 15.1151L16.2597 16.0697L16.2599 16.0698L16.5574 15.1151ZM18.5115 16.5604L17.6957 15.9821L16.643 17.4671L18.4609 17.5591L18.5115 16.5604ZM23.4999 14.4999L24.1606 15.2505L26.1495 13.4999H23.4999V14.4999ZM21.9999 14.4999V13.4999H21.5747L21.2797 13.8061L21.9999 14.4999ZM18.9248 15.6036L18.1618 16.25L18.1625 16.2508L18.9248 15.6036ZM18.5115 12.3892L19.4074 12.8334L19.4648 12.7175L19.4909 12.5909L18.5115 12.3892ZM18.7341 11.3081L19.7135 11.5098L19.8518 10.8381L19.2751 10.4671L18.7341 11.3081ZM16.5054 9.87437L15.7148 10.4867L15.8199 10.6225L15.9643 10.7154L16.5054 9.87437ZM14.9762 7.90007L14.0668 8.31583L14.1148 8.421L14.1856 8.51241L14.9762 7.90007ZM11.0826 7.62546L10.8052 8.58624L11.508 8.78912L11.9142 8.18074L11.0826 7.62546ZM6.65124 8.05039L6.00385 7.28823L6.00296 7.28898L6.65124 8.05039ZM5.90257 10.3224L6.41295 11.1824L7.01368 10.8258L6.88562 10.1391L5.90257 10.3224ZM3.96296 9.7125L3.3192 10.4777L3.31977 10.4782L3.96296 9.7125ZM2.18812 10.4641L3.1714 10.6461L3.17151 10.6456L2.18812 10.4641ZM2.37022 12.395L2.89279 13.2476L3.56058 12.8383L3.32318 12.0919L2.37022 12.395ZM1.38452 12.9991L0.86196 12.1465L-0.203966 12.7998L0.667535 13.6962L1.38452 12.9991ZM4.72608 16.4361L4.0091 17.1332L4.29757 17.4299L4.71135 17.436L4.72608 16.4361ZM13.1609 16.5604C14.058 17.0023 14.0578 17.0028 14.0575 17.0032C14.0575 17.0033 14.0573 17.0037 14.0572 17.004C14.0569 17.0045 14.0567 17.005 14.0564 17.0054C14.056 17.0064 14.0556 17.0072 14.0552 17.0078C14.0546 17.0092 14.0541 17.01 14.0539 17.0104C14.0535 17.0112 14.054 17.0102 14.0555 17.0075C14.0584 17.002 14.065 16.9899 14.0753 16.9723C14.0959 16.9368 14.1307 16.8805 14.1794 16.812C14.2788 16.6721 14.4254 16.497 14.6158 16.3428C14.9679 16.0578 15.4762 15.8254 16.2597 16.0697L16.8551 14.1604C15.3116 13.6792 14.1217 14.1695 13.3573 14.7885C12.9895 15.0863 12.7232 15.4086 12.5494 15.6531C12.4615 15.7767 12.3945 15.8843 12.3476 15.9648C12.3241 16.0051 12.3054 16.0389 12.2915 16.0649C12.2846 16.0779 12.2788 16.089 12.2742 16.0979C12.2719 16.1024 12.2699 16.1064 12.2682 16.1098C12.2673 16.1115 12.2665 16.1131 12.2658 16.1145C12.2655 16.1153 12.2651 16.1159 12.2648 16.1166C12.2646 16.1169 12.2644 16.1174 12.2643 16.1175C12.2641 16.118 12.2639 16.1184 13.1609 16.5604ZM16.2599 16.0698C17.4424 16.4383 17.6448 16.7176 17.626 16.6903C17.5922 16.6413 17.5371 16.5175 17.5539 16.3446C17.5613 16.2689 17.581 16.2005 17.606 16.1414C17.6184 16.1118 17.6323 16.084 17.6472 16.0579C17.6547 16.0448 17.6625 16.0319 17.6705 16.0194C17.6745 16.0131 17.6786 16.0068 17.6828 16.0006C17.6849 15.9975 17.687 15.9944 17.6892 15.9913C17.6902 15.9898 17.6913 15.9882 17.6924 15.9867C17.6929 15.9859 17.6938 15.9848 17.694 15.9844C17.6948 15.9832 17.6957 15.9821 18.5115 16.5604C19.3273 17.1387 19.3281 17.1375 19.3289 17.1364C19.3292 17.136 19.33 17.1348 19.3306 17.134C19.3317 17.1324 19.3328 17.1308 19.3339 17.1292C19.3362 17.1259 19.3385 17.1226 19.3408 17.1192C19.3454 17.1123 19.3502 17.105 19.3551 17.0974C19.3648 17.0822 19.375 17.0654 19.3854 17.0471C19.4062 17.0106 19.4282 16.9673 19.4492 16.9176C19.4911 16.818 19.5298 16.6902 19.5445 16.5383C19.5762 16.2132 19.49 15.8706 19.2727 15.5553C18.8868 14.9954 18.1121 14.5521 16.8549 14.1604L16.2599 16.0698ZM18.5115 16.5604C18.4609 17.5591 18.461 17.5591 18.461 17.5591C18.4611 17.5591 18.4611 17.5591 18.4612 17.5591C18.4613 17.5591 18.4614 17.5591 18.4615 17.5591C18.4617 17.5591 18.4621 17.5592 18.4625 17.5592C18.4633 17.5592 18.4644 17.5593 18.4659 17.5594C18.4687 17.5595 18.4727 17.5597 18.4779 17.5599C18.4881 17.5604 18.503 17.5611 18.5219 17.562C18.5596 17.5637 18.6138 17.566 18.6809 17.5686C18.8149 17.5737 19.0013 17.5799 19.2118 17.584C19.6211 17.5921 20.1639 17.5934 20.5865 17.5566L20.4132 15.5641C20.1046 15.591 19.6531 15.5923 19.251 15.5844C19.0559 15.5806 18.8823 15.5749 18.7577 15.5701C18.6955 15.5677 18.6458 15.5655 18.612 15.564C18.5951 15.5632 18.5822 15.5626 18.5737 15.5622C18.5694 15.562 18.5663 15.5619 18.5644 15.5618C18.5634 15.5617 18.5627 15.5617 18.5623 15.5617C18.5621 15.5617 18.562 15.5617 18.5619 15.5617C18.5619 15.5617 18.5619 15.5617 18.5619 15.5617C18.5619 15.5617 18.5619 15.5617 18.5619 15.5617C18.562 15.5617 18.562 15.5617 18.5115 16.5604ZM20.5865 17.5566C20.8502 17.5337 21.0903 17.4386 21.2564 17.3622C21.44 17.2778 21.6273 17.1714 21.8051 17.0609C22.1615 16.8393 22.5437 16.5609 22.8843 16.2986C23.2282 16.0337 23.5461 15.7726 23.7771 15.5787C23.8929 15.4814 23.9877 15.4003 24.054 15.3431C24.0872 15.3145 24.1133 15.2918 24.1313 15.2761C24.1404 15.2682 24.1474 15.2621 24.1523 15.2578C24.1548 15.2556 24.1567 15.2539 24.1581 15.2527C24.1588 15.2521 24.1593 15.2516 24.1598 15.2513C24.16 15.2511 24.1601 15.2509 24.1603 15.2508C24.1604 15.2507 24.1604 15.2507 24.1605 15.2506C24.1605 15.2506 24.1606 15.2505 23.4999 14.4999C22.8392 13.7492 22.8392 13.7492 22.8392 13.7492C22.8392 13.7492 22.8393 13.7491 22.8393 13.7491C22.8393 13.7491 22.8392 13.7492 22.8392 13.7492C22.839 13.7493 22.8388 13.7496 22.8384 13.7499C22.8376 13.7506 22.8362 13.7518 22.8344 13.7534C22.8307 13.7567 22.8249 13.7618 22.8171 13.7685C22.8016 13.7821 22.7782 13.8024 22.7479 13.8285C22.6873 13.8808 22.5992 13.9562 22.4909 14.0471C22.2736 14.2296 21.9786 14.4717 21.664 14.714C21.346 14.9589 21.0238 15.1916 20.7492 15.3623C20.6115 15.4479 20.5016 15.508 20.4211 15.545C20.3232 15.59 20.3324 15.5712 20.4132 15.5641L20.5865 17.5566ZM23.4999 13.4999H21.9999V15.4999H23.4999V13.4999ZM21.9999 14.4999C21.2797 13.8061 21.2799 13.8059 21.28 13.8058C21.2801 13.8057 21.2802 13.8056 21.2803 13.8055C21.2804 13.8054 21.2805 13.8052 21.2806 13.8051C21.2808 13.805 21.2808 13.8049 21.2808 13.805C21.2806 13.8051 21.28 13.8058 21.2789 13.8069C21.2766 13.8092 21.2725 13.8134 21.2665 13.8194C21.2546 13.8314 21.2355 13.8504 21.2101 13.8751C21.159 13.9247 21.0831 13.9963 20.9888 14.0799C20.7965 14.2503 20.5438 14.4555 20.2785 14.6246C19.9975 14.8036 19.7808 14.8909 19.6499 14.9112C19.595 14.9197 19.5926 14.9102 19.6216 14.9191C19.6366 14.9237 19.653 14.9312 19.668 14.9411C19.6828 14.951 19.6887 14.9583 19.6872 14.9564L18.1625 16.2508C18.6776 16.8575 19.372 16.978 19.9558 16.8877C20.4898 16.805 20.983 16.5471 21.353 16.3114C21.7386 16.0657 22.078 15.7869 22.3151 15.5769C22.4354 15.4703 22.5335 15.3777 22.6027 15.3106C22.6374 15.2769 22.6651 15.2494 22.6849 15.2295C22.6948 15.2196 22.7027 15.2115 22.7086 15.2055C22.7115 15.2024 22.714 15.1999 22.7159 15.198C22.7168 15.197 22.7177 15.1961 22.7184 15.1954C22.7187 15.1951 22.719 15.1947 22.7193 15.1945C22.7194 15.1943 22.7196 15.1941 22.7197 15.194C22.7199 15.1939 22.72 15.1937 21.9999 14.4999ZM19.6878 14.9572C19.2705 14.4646 19.2016 13.9494 19.2394 13.5247C19.2588 13.3076 19.3064 13.1212 19.3488 12.9912C19.3697 12.927 19.3885 12.8792 19.4002 12.8512C19.406 12.8372 19.4099 12.8285 19.4114 12.8253C19.4121 12.8237 19.4122 12.8236 19.4116 12.8249C19.4112 12.8256 19.4107 12.8266 19.4101 12.828C19.4097 12.8287 19.4093 12.8295 19.4089 12.8304C19.4087 12.8309 19.4084 12.8313 19.4082 12.8318C19.4081 12.8321 19.4079 12.8325 19.4078 12.8326C19.4076 12.833 19.4074 12.8334 18.5115 12.3892C17.6155 11.945 17.6153 11.9454 17.6151 11.9459C17.6151 11.946 17.6148 11.9464 17.6147 11.9467C17.6144 11.9473 17.6141 11.948 17.6138 11.9486C17.6131 11.9499 17.6124 11.9514 17.6117 11.9529C17.6102 11.956 17.6085 11.9595 17.6066 11.9635C17.6028 11.9714 17.5982 11.9811 17.593 11.9925C17.5826 12.0153 17.5695 12.0449 17.5544 12.0809C17.5244 12.1528 17.4865 12.251 17.4472 12.3714C17.3693 12.6105 17.2829 12.9475 17.2473 13.3473C17.1753 14.1561 17.3131 15.2481 18.1618 16.25L19.6878 14.9572ZM19.4909 12.5909L19.7135 11.5098L17.7546 11.1065L17.532 12.1876L19.4909 12.5909ZM19.2751 10.4671L17.0464 9.03337L15.9643 10.7154L18.193 12.1491L19.2751 10.4671ZM17.296 9.26204L15.7668 7.28774L14.1856 8.51241L15.7148 10.4867L17.296 9.26204ZM14.9762 7.90007C15.8857 7.48431 15.8855 7.48387 15.8853 7.48342C15.8852 7.48326 15.885 7.4828 15.8849 7.48249C15.8846 7.48186 15.8843 7.48122 15.884 7.48055C15.8834 7.47923 15.8827 7.47783 15.882 7.47636C15.8807 7.47341 15.8791 7.47018 15.8775 7.46667C15.8741 7.45966 15.8702 7.45152 15.8656 7.44233C15.8565 7.42396 15.8448 7.40133 15.8306 7.37503C15.8021 7.32255 15.7627 7.25475 15.7114 7.17663C15.6096 7.02146 15.4566 6.81896 15.2427 6.61387C14.8073 6.19636 14.1179 5.76988 13.1437 5.72467L13.051 7.72251C13.4469 7.74089 13.697 7.90266 13.8585 8.05749C13.9431 8.13857 14.0028 8.21826 14.0392 8.27375C14.0571 8.30096 14.0682 8.32061 14.0729 8.32923C14.0752 8.33348 14.0758 8.33482 14.0748 8.33279C14.0743 8.33177 14.0733 8.32989 14.072 8.32709C14.0713 8.32569 14.0706 8.32405 14.0697 8.32218C14.0693 8.32124 14.0688 8.32025 14.0683 8.31919C14.0681 8.31866 14.0678 8.31812 14.0676 8.31756C14.0674 8.31728 14.0672 8.31685 14.0672 8.31671C14.067 8.31627 14.0668 8.31583 14.9762 7.90007ZM13.1437 5.72467C12.1984 5.68079 11.4805 5.99592 11.0015 6.33228C10.7656 6.49793 10.5884 6.66768 10.4666 6.80086C10.4055 6.86779 10.3572 6.9266 10.3216 6.97269C10.3038 6.99577 10.289 7.01579 10.2773 7.03218C10.2714 7.04039 10.2663 7.0477 10.2619 7.05405C10.2597 7.05723 10.2577 7.06017 10.2558 7.06286C10.2549 7.06421 10.2541 7.06549 10.2532 7.06671C10.2528 7.06732 10.2524 7.06792 10.252 7.0685C10.2518 7.06879 10.2516 7.06921 10.2515 7.06936C10.2512 7.06977 10.2509 7.07019 11.0826 7.62546C11.9142 8.18074 11.914 8.18115 11.9137 8.18155C11.9136 8.18168 11.9133 8.18208 11.9132 8.18234C11.9128 8.18286 11.9125 8.18337 11.9121 8.18387C11.9115 8.18485 11.9108 8.18579 11.9102 8.18667C11.909 8.18843 11.908 8.18999 11.907 8.19134C11.9052 8.19404 11.9038 8.19594 11.903 8.19709C11.9014 8.19938 11.9018 8.19872 11.9042 8.19552C11.9092 8.18905 11.9221 8.17294 11.9427 8.15035C11.9847 8.10449 12.0543 8.03684 12.1508 7.96908C12.3366 7.83861 12.6261 7.70279 13.051 7.72251L13.1437 5.72467ZM11.0826 7.62546C11.3599 6.66469 11.3597 6.66462 11.3594 6.66454C11.3593 6.66451 11.359 6.66443 11.3588 6.66437C11.3583 6.66424 11.3579 6.66411 11.3574 6.66396C11.3563 6.66366 11.3551 6.66331 11.3537 6.66292C11.3509 6.66212 11.3474 6.66113 11.3432 6.65995C11.3348 6.6576 11.3235 6.6545 11.3096 6.65075C11.2818 6.64324 11.2432 6.63311 11.1949 6.6211C11.0984 6.59712 10.9626 6.56549 10.7963 6.53232C10.4657 6.46638 10.0044 6.39234 9.48561 6.36261C8.50857 6.30663 7.06079 6.39044 6.00385 7.28823L7.29863 8.81254C7.73903 8.43846 8.50692 8.30981 9.3712 8.35934C9.77306 8.38236 10.1388 8.44057 10.4051 8.49368C10.5373 8.52004 10.6424 8.54464 10.7123 8.56201C10.7471 8.57068 10.773 8.5775 10.7889 8.58178C10.7969 8.58392 10.8023 8.58542 10.805 8.58619C10.8064 8.58658 10.8071 8.58678 10.8072 8.58679C10.8072 8.5868 10.807 8.58676 10.8067 8.58666C10.8066 8.58662 10.8063 8.58656 10.8061 8.58649C10.806 8.58645 10.8058 8.58639 10.8057 8.58637C10.8055 8.5863 10.8052 8.58624 11.0826 7.62546ZM6.00296 7.28898C5.24508 7.93427 4.98629 8.77056 4.90609 9.37869C4.86556 9.68603 4.86733 9.95513 4.87912 10.1492C4.88506 10.2471 4.89372 10.3283 4.90153 10.3886C4.90545 10.4189 4.90919 10.4441 4.91232 10.4637C4.91388 10.4735 4.9153 10.482 4.91651 10.489C4.91712 10.4925 4.91768 10.4957 4.91818 10.4985C4.91843 10.4999 4.91867 10.5012 4.91889 10.5024C4.919 10.503 4.91911 10.5036 4.91921 10.5041C4.91927 10.5044 4.91934 10.5048 4.91937 10.5049C4.91944 10.5053 4.91951 10.5057 5.90257 10.3224C6.88562 10.1391 6.88569 10.1395 6.88576 10.1399C6.88579 10.14 6.88585 10.1403 6.8859 10.1406C6.88599 10.1411 6.88607 10.1415 6.88615 10.1419C6.88631 10.1428 6.88645 10.1436 6.88658 10.1443C6.88684 10.1458 6.88703 10.1469 6.88717 10.1477C6.88746 10.1493 6.88752 10.1497 6.88741 10.149C6.88718 10.1476 6.88625 10.1416 6.88495 10.1316C6.88233 10.1114 6.87834 10.0757 6.87543 10.0279C6.86952 9.93055 6.86875 9.79316 6.88893 9.64017C6.93014 9.32763 7.04568 9.02791 7.29952 8.81179L6.00296 7.28898ZM5.90257 10.3224C5.39219 9.46247 5.39296 9.46201 5.39372 9.46156C5.39398 9.46141 5.39474 9.46096 5.39525 9.46066C5.39626 9.46007 5.39726 9.45948 5.39826 9.45889C5.40025 9.45773 5.40222 9.45659 5.40416 9.45548C5.40804 9.45325 5.41181 9.45113 5.41546 9.4491C5.42278 9.44504 5.42967 9.44136 5.43612 9.43803C5.44904 9.43138 5.46029 9.42609 5.46993 9.42188C5.48921 9.41348 5.50214 9.40939 5.50889 9.40754C5.52392 9.40344 5.5096 9.41016 5.46416 9.40694C5.38399 9.40126 5.09311 9.35583 4.60615 8.94679L3.31977 10.4782C4.06133 11.1011 4.74025 11.3606 5.32275 11.4019C5.60865 11.4222 5.84889 11.3879 6.03564 11.3369C6.12825 11.3116 6.20633 11.2826 6.2693 11.2552C6.30078 11.2415 6.32851 11.2281 6.35244 11.2158C6.36441 11.2096 6.37544 11.2037 6.38552 11.1981C6.39056 11.1953 6.39537 11.1926 6.39994 11.19C6.40222 11.1886 6.40445 11.1874 6.40662 11.1861C6.4077 11.1855 6.40877 11.1848 6.40983 11.1842C6.41035 11.1839 6.41113 11.1834 6.4114 11.1833C6.41217 11.1828 6.41295 11.1824 5.90257 10.3224ZM4.60672 8.94727C3.98359 8.42305 3.16935 8.42799 2.56921 8.66036C1.94502 8.90204 1.35725 9.45612 1.20472 10.2826L3.17151 10.6456C3.17611 10.6206 3.18535 10.6028 3.20126 10.585C3.22009 10.5639 3.25086 10.5411 3.29136 10.5254C3.333 10.5093 3.36458 10.5086 3.37568 10.5097C3.38458 10.5106 3.35696 10.5095 3.3192 10.4777L4.60672 8.94727ZM1.20483 10.282C1.09331 10.8842 1.16146 11.5045 1.23439 11.9231C1.27263 12.1426 1.31657 12.3303 1.35131 12.4646C1.36877 12.532 1.38414 12.5869 1.39567 12.6265C1.40143 12.6463 1.40626 12.6624 1.40993 12.6745C1.41176 12.6805 1.41331 12.6855 1.41454 12.6894C1.41515 12.6914 1.41569 12.6931 1.41615 12.6946C1.41637 12.6953 1.41658 12.6959 1.41677 12.6965C1.41686 12.6968 1.41695 12.6971 1.41703 12.6974C1.41707 12.6975 1.41713 12.6977 1.41715 12.6977C1.41721 12.6979 1.41726 12.6981 2.37022 12.395C3.32318 12.0919 3.32324 12.0921 3.32329 12.0922C3.3233 12.0923 3.32335 12.0924 3.32339 12.0925C3.32345 12.0927 3.3235 12.0929 3.32356 12.0931C3.32366 12.0934 3.32374 12.0937 3.32381 12.0939C3.32394 12.0943 3.32399 12.0944 3.32396 12.0944C3.32391 12.0942 3.32356 12.0931 3.32294 12.091C3.32169 12.0869 3.31934 12.0791 3.31609 12.068C3.30958 12.0456 3.29955 12.01 3.28751 11.9635C3.26327 11.8698 3.23187 11.7357 3.20471 11.5799C3.14684 11.2476 3.12394 10.9024 3.1714 10.6461L1.20483 10.282ZM1.84766 11.5424L0.86196 12.1465L1.90708 13.8517L2.89279 13.2476L1.84766 11.5424ZM0.667535 13.6962L4.0091 17.1332L5.44307 15.739L2.10151 12.3021L0.667535 13.6962ZM4.71135 17.436L13.1462 17.5603L13.1757 15.5605L4.74082 15.4362L4.71135 17.436Z" fill="#008132" mask="url(#path-4-inside-1_2_368)"/>
<path d="M19.8984 10.5249L19.8986 10.5248L23.137 8.26714L23.4156 8.68232C23.4156 8.6823 23.4156 8.68228 23.4156 8.68227C23.4611 8.65177 23.5104 8.61609 23.5475 8.58918C23.561 8.57939 23.573 8.57077 23.5825 8.56397C23.5879 8.5601 23.5931 8.55646 23.598 8.55304C23.6724 8.68143 23.7649 8.86553 23.8604 9.0943C24.0684 9.59258 24.2768 10.2691 24.3504 10.9927C24.4241 11.7171 24.3603 12.4612 24.0547 13.1207C23.7542 13.7691 23.2026 14.3745 22.2258 14.8084L22.2256 14.8085C21.3895 15.1802 20.5149 15.4318 19.8439 15.5907C19.5097 15.6698 19.229 15.7252 19.0329 15.7607C19.0026 15.7662 18.9743 15.7712 18.9482 15.7757L16.5925 13.7858L16.5143 11.7052C16.5334 11.6996 16.5532 11.6938 16.5735 11.6877C16.8408 11.6085 17.2083 11.4975 17.6082 11.3705C18.3947 11.1208 19.3502 10.7959 19.8984 10.5249Z" fill="#EAFFF2" stroke="#008132"/>
<path d="M21.0929 13.4207L21.0928 13.4207C19.7815 13.9069 18.8593 13.5551 18.2582 13.0863C17.948 12.8444 17.719 12.5664 17.5732 12.3422C17.567 12.3326 17.5609 12.3231 17.555 12.3137C17.7129 12.2434 17.9145 12.159 18.1517 12.0616C18.2738 12.0115 18.4044 11.9583 18.5414 11.9025C19.0679 11.6881 19.6899 11.4347 20.2931 11.1668L20.2937 11.1665C20.8804 10.905 21.4511 10.6271 21.9231 10.3972C22.0376 10.3415 22.1464 10.2885 22.2481 10.2393C22.4115 10.1603 22.5544 10.0922 22.6749 10.0369C22.6798 10.0592 22.6845 10.0823 22.6892 10.1063C22.7491 10.4127 22.788 10.8218 22.7445 11.2518C22.6591 12.0968 22.2692 12.985 21.0929 13.4207Z" fill="#EAFFF2" stroke="#008132"/>
<path d="M20.6556 11.878L20.6552 11.8781C20.3377 12.0152 20.0486 12.1204 19.7936 12.1719C19.6374 12.2035 19.5107 12.2113 19.4083 12.2019C19.413 12.1562 19.4215 12.1007 19.4352 12.036C19.4894 11.7788 19.5901 11.527 19.6402 11.431C19.6428 11.4289 19.6457 11.4265 19.649 11.4238C19.6777 11.4009 19.722 11.3699 19.7834 11.3322C19.9056 11.2572 20.0662 11.1731 20.2376 11.093C20.4081 11.0133 20.5796 10.9421 20.7204 10.8914C20.8296 10.852 20.8926 10.8353 20.9175 10.8287C20.9177 10.8286 20.918 10.8286 20.9182 10.8285C20.9367 10.8329 20.982 10.8439 21.0579 10.8719C21.1687 10.9129 21.3 10.9738 21.423 11.046C21.5433 11.1165 21.6363 11.1866 21.694 11.2449C21.6514 11.2984 21.5779 11.3667 21.4675 11.4453C21.2458 11.6031 20.9461 11.7528 20.6556 11.878ZM19.4069 12.3339C19.4076 12.3367 19.4079 12.3383 19.4078 12.3384C19.4078 12.3385 19.4074 12.3371 19.4069 12.3339ZM21.7365 11.2949C21.7383 11.2976 21.7389 11.2989 21.7388 11.2989C21.7387 11.2989 21.7378 11.2975 21.7365 11.2949Z" fill="#EAFFF2" stroke="#008132"/>
<path d="M18.7229 12.6176C18.4454 12.5453 18.191 12.82 18.1217 13.1408C18.0321 13.56 18.4367 13.6496 18.6217 13.4964C18.9079 13.2593 18.986 12.6841 18.7229 12.6176Z" fill="#EAFFF2"/>
<path d="M18.7229 12.6176C18.4454 12.5453 18.191 12.82 18.1217 13.1408C18.0321 13.56 18.4367 13.6496 18.6217 13.4964C18.9079 13.2593 18.986 12.6841 18.7229 12.6176Z" stroke="#008132"/>
<path d="M20.2144 12.8431C19.9398 12.8518 19.8357 13.2912 19.9311 13.6063C20.0525 14.0196 20.4659 13.9098 20.5381 13.6814C20.6711 13.2767 20.4861 12.8345 20.2144 12.8431Z" fill="#EAFFF2"/>
<path d="M20.2144 12.8431C19.9398 12.8518 19.8357 13.2912 19.9311 13.6063C20.0525 14.0196 20.4659 13.9098 20.5381 13.6814C20.6711 13.2767 20.4861 12.8345 20.2144 12.8431Z" stroke="#008132"/>
<path d="M21.6974 12.1117C21.498 12.288 21.6916 12.6812 21.9576 12.8575C22.3044 13.0888 22.5444 12.7534 22.4576 12.5366C22.3044 12.1522 21.894 11.9383 21.6974 12.1117Z" fill="#EAFFF2"/>
<path d="M21.6974 12.1117C21.498 12.288 21.6916 12.6812 21.9576 12.8575C22.3044 13.0888 22.5444 12.7534 22.4576 12.5366C22.3044 12.1522 21.894 11.9383 21.6974 12.1117Z" stroke="#008132"/>
<path d="M22.7103 10.741C22.6956 10.7698 22.688 10.7991 22.6853 10.8256C22.6853 10.8257 22.6853 10.8258 22.6853 10.8259C22.6841 10.838 22.684 10.8496 22.6846 10.8602C22.6867 10.8933 22.6963 10.9195 22.7089 10.9403C22.7221 10.9083 22.7311 10.8686 22.7286 10.8235L22.7103 10.741ZM22.7103 10.741C22.7206 10.767 22.727 10.795 22.7286 10.8232L22.7103 10.741ZM22.6337 10.6412C22.6337 10.6412 22.6341 10.6414 22.6349 10.6418L22.6337 10.6412Z" fill="#EAFFF2" stroke="#008132"/>
<path d="M4.94689 17.7263C4.93183 17.7233 4.91234 17.7186 4.88769 17.7113C4.72885 17.6641 4.49716 17.5402 4.21005 17.3322C3.64554 16.9233 2.99761 16.286 2.49788 15.6833C1.99087 15.0718 1.56889 14.4581 1.33997 13.9475C1.22506 13.6912 1.17254 13.4908 1.1652 13.3473C1.1583 13.2124 1.19131 13.166 1.21018 13.146L0.846876 12.8025L1.20985 13.1464C1.2598 13.0937 1.28241 13.0937 1.29882 13.0937C1.2992 13.0937 1.29958 13.0937 1.29995 13.0938C1.34141 13.0938 1.44841 13.1128 1.64633 13.2376L4.94689 17.7263ZM4.94689 17.7263C4.95533 17.7124 4.96211 17.6983 4.96759 17.6823C4.97739 17.6536 4.99172 17.5932 4.96124 17.4834L4.94689 17.7263ZM3.43724 15.0108C4.35641 16.094 4.79552 16.8874 4.96121 17.4833L3.43724 15.0108ZM4.99032 17.7305C4.99062 17.7309 4.98772 17.7314 4.98069 17.731C4.9865 17.73 4.99001 17.7302 4.99032 17.7305Z" fill="#EAFFF2" stroke="#008132"/>
<path d="M11.1419 14.5011C11.1418 14.5009 11.1433 14.5005 11.1467 14.5002C11.1438 14.5011 11.1421 14.5012 11.1419 14.5011ZM11.159 14.5001C11.1785 14.5009 11.2164 14.5059 11.2818 14.525C11.4384 14.5707 11.6479 14.6648 11.9788 14.8194C12.0047 14.8315 12.0311 14.8439 12.058 14.8565C12.7 15.1569 13.6383 15.5959 15.0485 16.0361L15.0489 16.0363C16.3561 16.4429 17.5735 16.6799 18.4936 16.8537C18.5414 16.8628 18.5883 16.8716 18.6343 16.8803C19.0357 16.956 19.3641 17.0179 19.6187 17.078C19.76 17.1113 19.8646 17.141 19.938 17.1675C19.941 17.1685 19.9439 17.1696 19.9466 17.1706C19.9421 17.238 19.9214 17.3375 19.8771 17.4677C19.7791 17.7555 19.609 18.0717 19.4851 18.2857C19.3942 18.4428 18.9146 19.1045 18.0638 19.6941C17.2239 20.2763 16.0399 20.7766 14.5194 20.6679C13.3086 20.5801 12.381 20.2034 11.7298 19.6329C11.0818 19.0652 10.6718 18.2746 10.5453 17.2878C10.4214 16.3128 10.571 15.6053 10.7609 15.1422C10.8565 14.9089 10.9624 14.7373 11.0495 14.6238C11.1033 14.5539 11.1415 14.5165 11.159 14.5001ZM19.9457 17.1143C19.9457 17.1143 19.9459 17.115 19.9461 17.1164L19.9457 17.1143Z" fill="#EAFFF2" stroke="#008132"/>
<path d="M14.3547 19.1372L14.3547 19.1371C13.1368 18.7337 12.6159 17.8602 12.426 17.0478C12.3295 16.635 12.3217 16.2456 12.3551 15.9597C12.3603 15.9149 12.3664 15.874 12.373 15.837C12.4911 15.8856 12.6406 15.9545 12.8328 16.0448C12.8657 16.0603 12.8995 16.0763 12.9343 16.0927C13.434 16.3281 14.1222 16.6524 14.9983 16.9639L14.9987 16.9641C15.9397 17.2977 16.6981 17.4347 17.227 17.5303L17.2416 17.533C17.436 17.5681 17.5813 17.5949 17.6927 17.6211C17.6752 17.6524 17.6552 17.6864 17.6323 17.7228C17.4775 17.9687 17.2261 18.2734 16.8984 18.5475C16.241 19.0975 15.3541 19.4683 14.3547 19.1372ZM17.8944 17.6846C17.8944 17.6846 17.8935 17.6842 17.892 17.6832C17.8937 17.6841 17.8944 17.6846 17.8944 17.6846Z" fill="#EAFFF2" stroke="#008132"/>
<path d="M3.69041 18.0978C4.31099 18.5472 5.1169 19.0673 6.11476 19.5891C8.8084 20.998 12.8933 22.4162 18.4927 22.4998L18.4927 22.4998C25.0744 22.5978 29.1735 21.1385 31.6436 19.615C32.1485 19.3036 32.5842 18.9902 32.958 18.6881C32.8493 18.8167 32.7293 18.9477 32.5968 19.0801C31.3869 20.29 29.0946 21.234 26.4302 21.863C23.7893 22.4865 20.8774 22.7792 18.5182 22.7494L3.69041 18.0978ZM3.69041 18.0978C3.88672 18.3918 4.13016 18.6791 4.43028 18.9255C7.50145 21.436 12.1635 22.6661 18.518 22.7494L3.69041 18.0978Z" fill="#EAFFF2" stroke="#008132"/>
</svg>
