<svg width="24" height="14" viewBox="0 0 24 14" fill="none" xmlns="http://www.w3.org/2000/svg">
<path d="M22.64 12.6933C22.7759 12.5578 22.8836 12.3969 22.9571 12.2197C23.0306 12.0426 23.0685 11.8526 23.0685 11.6608C23.0685 11.469 23.0306 11.2791 22.9571 11.1019C22.8836 10.9247 22.7759 10.7638 22.64 10.6283L12.8284 0.816648C12.7204 0.708494 12.5922 0.622689 12.4511 0.564144C12.31 0.505599 12.1587 0.475464 12.0059 0.475464C11.8531 0.475464 11.7018 0.505599 11.5606 0.564144C11.4195 0.622689 11.2913 0.708494 11.1834 0.816648L1.37171 10.6283C0.800041 11.2 0.800041 12.1216 1.37171 12.6933C1.94337 13.265 2.86504 13.265 3.43671 12.6933L12 4.12998L20.575 12.705C21.1467 13.265 22.0684 13.265 22.64 12.6933Z" fill="#008132"/>
</svg>
