<svg width="17" height="29" viewBox="0 0 17 29" fill="none" xmlns="http://www.w3.org/2000/svg">
<path d="M1.38333 1.19998C1.55266 1.03022 1.75382 0.89553 1.97529 0.803631C2.19675 0.711733 2.43418 0.664429 2.67395 0.664429C2.91373 0.664429 3.15115 0.711733 3.37262 0.803631C3.59408 0.89553 3.79524 1.03022 3.96458 1.19998L16.2292 13.4646C16.3644 13.5995 16.4716 13.7597 16.5448 13.9362C16.618 14.1126 16.6556 14.3017 16.6556 14.4927C16.6556 14.6837 16.618 14.8728 16.5448 15.0492C16.4716 15.2256 16.3644 15.3859 16.2292 15.5208L3.96458 27.7854C3.24999 28.5 2.09791 28.5 1.38333 27.7854C0.668746 27.0708 0.668746 25.9187 1.38333 25.2041L12.0875 14.5L1.36875 3.78123C0.668746 3.06665 0.668746 1.91456 1.38333 1.19998V1.19998Z" fill="#008132"/>
</svg>
