<svg width="28" height="28" viewBox="0 0 28 28" fill="none" xmlns="http://www.w3.org/2000/svg">
<g clip-path="url(#clip0_2_357)">
<path d="M8.00103 1.37718L8.00116 1.37719C18.0562 1.40913 26.5883 9.92436 26.6228 19.9561L26.6237 20.1999L26.3874 20.2589L26.387 20.259L23.9039 20.8771L23.8638 20.6144C22.5795 12.1977 15.7935 5.41407 7.34801 4.13266L7.08501 4.09275L7.69798 1.61376L7.69801 1.61364L7.75674 1.37635L8.00103 1.37718ZM14.4989 22.9564L14.5883 23.1958L11.6144 23.9361L11.5291 23.6249C11.4311 23.2677 11.5002 22.8494 11.7141 22.4831C11.9276 22.1173 12.2595 21.8482 12.6273 21.7551L12.6275 21.755C13.1125 21.6321 13.4846 21.7325 13.778 21.9413C14.0871 22.1613 14.3376 22.5245 14.4989 22.9564Z" fill="#EAFFF2" stroke="#008132"/>
<mask id="path-2-inside-1_2_357" fill="white">
<path d="M6.52923 17.7634C6.85993 17.7646 7.18759 17.7002 7.49329 17.5741C7.79899 17.4479 8.07667 17.2625 8.31029 17.0284C8.54423 16.7953 8.72973 16.5183 8.8561 16.2132C8.98248 15.9081 9.04722 15.5811 9.0466 15.2508C9.04719 14.9208 8.98243 14.594 8.85605 14.2891C8.72968 13.9842 8.54419 13.7074 8.31029 13.4746C8.12173 13.2869 7.79054 13.286 7.60285 13.4746C7.50948 13.5683 7.4571 13.6952 7.45718 13.8275C7.45726 13.9598 7.5098 14.0867 7.60329 14.1803C7.88898 14.4651 8.04691 14.8466 8.04691 15.2513C8.04691 15.656 7.89029 16.037 7.60416 16.3218C7.03016 16.8932 6.02829 16.8932 5.45648 16.3227C5.36156 16.2312 5.23484 16.18 5.10298 16.18C4.97112 16.18 4.84439 16.2312 4.74948 16.3227C4.70317 16.369 4.66644 16.4239 4.64139 16.4844C4.61635 16.5449 4.60348 16.6097 4.60352 16.6752C4.60356 16.7407 4.61651 16.8055 4.64163 16.8659C4.66675 16.9264 4.70355 16.9813 4.74991 17.0275C4.98313 17.2617 5.26046 17.4473 5.56588 17.5736C5.87129 17.7 6.19872 17.7645 6.52923 17.7634Z"/>
</mask>
<path d="M8.31029 17.0284L7.60452 16.32L7.60252 16.322L8.31029 17.0284ZM9.0466 15.2508L8.0466 15.2491L8.0466 15.2527L9.0466 15.2508ZM8.31029 13.4746L7.60483 14.1833L7.60483 14.1833L8.31029 13.4746ZM7.60285 13.4746L8.31128 14.1804L8.3116 14.1801L7.60285 13.4746ZM7.60329 14.1803L6.89573 14.8869L6.89727 14.8885L7.60329 14.1803ZM7.60416 16.3218L6.89869 15.6131L6.89868 15.6131L7.60416 16.3218ZM5.45648 16.3227L6.16277 15.6148L6.15675 15.6088L6.15064 15.6029L5.45648 16.3227ZM5.10298 16.18V17.18V16.18ZM4.74948 16.3227L4.05532 15.6029L4.04893 15.6091L4.04265 15.6153L4.74948 16.3227ZM4.74991 17.0275L5.4585 16.3219L5.45587 16.3193L4.74991 17.0275ZM6.52566 18.7634C6.98844 18.765 7.44697 18.675 7.87476 18.4985L7.11182 16.6497C6.92822 16.7255 6.73142 16.7641 6.5328 16.7634L6.52566 18.7634ZM7.87476 18.4985C8.30255 18.3219 8.69113 18.0624 9.01806 17.7348L7.60252 16.322C7.4622 16.4625 7.29543 16.5739 7.11182 16.6497L7.87476 18.4985ZM9.01606 17.7368C9.34348 17.4107 9.60311 17.0229 9.77998 16.5959L7.93223 15.8305C7.85636 16.0137 7.74498 16.18 7.60452 16.32L9.01606 17.7368ZM9.77998 16.5959C9.95685 16.1689 10.0475 15.7111 10.0466 15.249L8.0466 15.2527C8.04697 15.451 8.0081 15.6473 7.93223 15.8305L9.77998 16.5959ZM10.0466 15.2526C10.0474 14.7906 9.95676 14.333 9.77983 13.9062L7.93228 14.672C8.0081 14.8549 8.04696 15.0511 8.0466 15.2491L10.0466 15.2526ZM9.77983 13.9062C9.6029 13.4793 9.34321 13.0918 9.01575 12.7658L7.60483 14.1833C7.74517 14.323 7.85646 14.4891 7.93228 14.672L9.77983 13.9062ZM9.01575 12.7658C8.44 12.1928 7.47561 12.1849 6.8941 12.7691L8.3116 14.1801C8.19546 14.2967 8.05882 14.3336 7.9554 14.3335C7.85222 14.3334 7.71869 14.2967 7.60483 14.1833L9.01575 12.7658ZM6.89442 12.7688C6.61417 13.0501 6.45693 13.4311 6.45718 13.8281L8.45718 13.8269C8.45726 13.9594 8.40479 14.0865 8.31128 14.1804L6.89442 12.7688ZM6.45718 13.8281C6.45742 14.2252 6.61514 14.606 6.89573 14.8869L8.31085 13.4736C8.40447 13.5674 8.4571 13.6944 8.45718 13.8269L6.45718 13.8281ZM6.89727 14.8885C6.99392 14.9848 7.04691 15.1112 7.04691 15.2513H9.04691C9.04691 14.582 8.78403 13.9454 8.30931 13.4721L6.89727 14.8885ZM7.04691 15.2513C7.04691 15.3932 6.99396 15.5183 6.89869 15.6131L8.30964 17.0306C8.78662 16.5558 9.04691 15.9187 9.04691 15.2513H7.04691ZM6.89868 15.6131C6.71401 15.7969 6.34343 15.795 6.16277 15.6148L4.75018 17.0306C5.71315 17.9914 7.34632 17.9895 8.30965 17.0306L6.89868 15.6131ZM6.15064 15.6029C5.86933 15.3316 5.49377 15.18 5.10298 15.18V17.18C4.97591 17.18 4.85379 17.1307 4.76232 17.0425L6.15064 15.6029ZM5.10298 15.18C4.71218 15.18 4.33662 15.3316 4.05532 15.6029L5.44363 17.0425C5.35217 17.1307 5.23005 17.18 5.10298 17.18V15.18ZM4.04265 15.6153C3.90332 15.7545 3.79282 15.9199 3.71747 16.1018L5.56532 16.867C5.54006 16.928 5.50301 16.9834 5.45631 17.0301L4.04265 15.6153ZM3.71747 16.1018C3.64212 16.2838 3.60339 16.4789 3.60352 16.6758L5.60352 16.6746C5.60356 16.7406 5.59058 16.806 5.56532 16.867L3.71747 16.1018ZM3.60352 16.6758C3.60364 16.8728 3.6426 17.0678 3.71818 17.2497L5.56508 16.4822C5.59041 16.5432 5.60347 16.6086 5.60352 16.6746L3.60352 16.6758ZM3.71818 17.2497C3.79376 17.4316 3.90447 17.5967 4.04396 17.7358L5.45587 16.3193C5.50263 16.3659 5.53974 16.4212 5.56508 16.4822L3.71818 17.2497ZM4.04133 17.7332C4.36784 18.061 4.75611 18.3209 5.1837 18.4977L5.94806 16.6496C5.76482 16.5738 5.59842 16.4624 5.45849 16.3219L4.04133 17.7332ZM5.1837 18.4977C5.61129 18.6746 6.0697 18.7649 6.53241 18.7634L6.52605 16.7634C6.32775 16.764 6.1313 16.7253 5.94806 16.6496L5.1837 18.4977Z" fill="#008132" mask="url(#path-2-inside-1_2_357)"/>
<mask id="path-4-inside-2_2_357" fill="white">
<path d="M13.7905 11.0172C13.7168 11.3278 13.7149 11.6512 13.7848 11.9626C13.874 12.358 14.0727 12.7203 14.3579 13.0083C14.6432 13.2962 15.0037 13.4981 15.3983 13.591C15.5152 13.6178 15.638 13.5972 15.7398 13.5338C15.8416 13.4703 15.9142 13.3692 15.9416 13.2524C15.9649 13.1359 15.9428 13.0149 15.8797 12.9142C15.8167 12.8135 15.7175 12.7407 15.6026 12.7108C14.959 12.5616 14.5198 11.8703 14.672 11.2211C14.747 10.9002 14.9464 10.6221 15.2263 10.4481C15.5062 10.2741 15.8438 10.2184 16.1648 10.2931C16.2825 10.3203 16.4045 10.3006 16.5064 10.2363C16.6088 10.1724 16.681 10.0722 16.7073 9.95408C16.7226 9.88846 16.7235 9.82065 16.709 9.75458C16.6901 9.67159 16.6483 9.59555 16.5884 9.53508C16.5284 9.47462 16.4528 9.43214 16.37 9.41246C16.095 9.34777 15.81 9.3384 15.5314 9.38489C15.2528 9.43139 14.9863 9.53281 14.7473 9.68327C14.5072 9.83096 14.299 10.025 14.1347 10.254C13.9704 10.483 13.8534 10.7425 13.7905 11.0172Z"/>
</mask>
<path d="M13.7848 11.9626L12.809 12.1815L12.8093 12.1829L13.7848 11.9626ZM15.3983 13.591L15.1691 14.5644L15.1751 14.5658L15.3983 13.591ZM15.9416 13.2524L16.915 13.4815L16.9189 13.465L16.9223 13.4483L15.9416 13.2524ZM15.6026 12.7108L15.8548 11.7431L15.8417 11.7397L15.8284 11.7366L15.6026 12.7108ZM14.672 11.2211L15.6456 11.4494L15.6458 11.4487L14.672 11.2211ZM16.1648 10.2931L15.9379 11.2671L15.9402 11.2676L16.1648 10.2931ZM16.5064 10.2363L15.9771 9.38785L15.9729 9.39052L16.5064 10.2363ZM16.7073 9.95408L15.7334 9.72684L15.7311 9.73715L16.7073 9.95408ZM16.709 9.75458L17.686 9.54107L17.684 9.53215L16.709 9.75458ZM16.37 9.41246L16.6011 8.43955L16.599 8.43904L16.37 9.41246ZM14.7473 9.68327L15.2713 10.535L15.28 10.5296L14.7473 9.68327ZM12.8174 10.7866C12.7088 11.2449 12.7059 11.7219 12.809 12.1815L14.7605 11.7438C14.7239 11.5804 14.7249 11.4108 14.7635 11.2478L12.8174 10.7866ZM12.8093 12.1829C12.9399 12.7611 13.2304 13.291 13.6476 13.7121L15.0683 12.3044C14.9149 12.1497 14.8082 11.9549 14.7602 11.7424L12.8093 12.1829ZM13.6476 13.7121C14.0648 14.1332 14.5921 14.4285 15.1691 14.5644L15.6275 12.6176C15.4154 12.5677 15.2216 12.4592 15.0683 12.3044L13.6476 13.7121ZM15.1751 14.5658C15.5496 14.6515 15.9427 14.5856 16.2687 14.3824L15.2109 12.6851C15.3333 12.6088 15.4808 12.5841 15.6214 12.6162L15.1751 14.5658ZM16.2687 14.3824C16.5947 14.1793 16.827 13.8554 16.915 13.4815L14.9682 13.0233C15.0013 12.8829 15.0885 12.7613 15.2109 12.6851L16.2687 14.3824ZM16.9223 13.4483C16.9955 13.0815 16.9258 12.7006 16.7273 12.3836L15.0321 13.4448C14.9597 13.3292 14.9343 13.1903 14.961 13.0565L16.9223 13.4483ZM16.7273 12.3836C16.5289 12.0666 16.2167 11.8374 15.8548 11.7431L15.3503 13.6784C15.2183 13.644 15.1045 13.5605 15.0321 13.4448L16.7273 12.3836ZM15.8284 11.7366C15.7905 11.7278 15.7317 11.6948 15.6857 11.6216C15.6402 11.5491 15.6372 11.4853 15.6456 11.4494L13.6984 10.9928C13.4179 12.1889 14.2025 13.4127 15.3767 13.6849L15.8284 11.7366ZM15.6458 11.4487C15.6604 11.3859 15.6995 11.3315 15.7543 11.2974L14.6984 9.59886C14.1934 9.9128 13.8336 10.4144 13.6983 10.9935L15.6458 11.4487ZM15.7543 11.2974C15.809 11.2634 15.8751 11.2525 15.9379 11.2671L16.3916 9.31921C15.8124 9.18433 15.2034 9.28492 14.6984 9.59886L15.7543 11.2974ZM15.9402 11.2676C16.3112 11.3531 16.7071 11.2921 17.04 11.082L15.9729 9.39052C16.1019 9.30911 16.2537 9.28742 16.3894 9.31869L15.9402 11.2676ZM17.0358 11.0847C17.3606 10.882 17.5977 10.557 17.6834 10.171L15.7311 9.73715C15.7643 9.58744 15.857 9.46277 15.9771 9.38786L17.0358 11.0847ZM17.6811 10.1813C17.7293 9.97457 17.733 9.75616 17.686 9.54108L15.7321 9.96809C15.7139 9.88513 15.7158 9.80235 15.7334 9.72685L17.6811 10.1813ZM17.684 9.53215C17.6235 9.26709 17.49 9.02426 17.2986 8.83116L15.8781 10.239C15.8066 10.1668 15.7567 10.0761 15.7341 9.97701L17.684 9.53215ZM17.2986 8.83116C17.1073 8.63806 16.8656 8.5024 16.6011 8.43955L16.1388 10.3854C16.0399 10.3619 15.9496 10.3112 15.8781 10.239L17.2986 8.83116ZM16.599 8.43904C16.195 8.34399 15.7761 8.33022 15.3668 8.39854L15.696 10.3713C15.8438 10.3466 15.9951 10.3516 16.1409 10.3859L16.599 8.43904ZM15.3668 8.39854C14.9574 8.46685 14.5658 8.61589 14.2145 8.83698L15.28 10.5296C15.4068 10.4497 15.5482 10.3959 15.696 10.3713L15.3668 8.39854ZM14.2233 8.83155C13.8701 9.04882 13.5638 9.33424 13.3221 9.67115L14.9473 10.8369C15.0342 10.7157 15.1443 10.6131 15.2713 10.535L14.2233 8.83155ZM13.3221 9.67115C13.0804 10.0081 12.9083 10.3897 12.8157 10.7939L14.7652 11.2405C14.7985 11.0952 14.8604 10.958 14.9473 10.8369L13.3221 9.67115Z" fill="#008132" mask="url(#path-4-inside-2_2_357)"/>
<mask id="path-6-inside-3_2_357" fill="white">
<path d="M17.7814 18.707C17.4891 18.6277 17.1827 18.6153 16.8849 18.6707C16.5078 18.7409 16.158 18.9157 15.8755 19.1751C15.593 19.4346 15.3891 19.7683 15.2872 20.1381C15.2727 20.1923 15.269 20.2489 15.2764 20.3046C15.2838 20.3602 15.3021 20.4139 15.3302 20.4624C15.3583 20.511 15.3957 20.5536 15.4403 20.5877C15.4848 20.6219 15.5357 20.6469 15.5899 20.6614C15.6994 20.6879 15.8149 20.6715 15.9126 20.6154C16.0102 20.5593 16.0827 20.4679 16.1149 20.3599C16.2781 19.7579 16.9479 19.3677 17.5569 19.5331C17.7063 19.5728 17.8464 19.6417 17.969 19.736C18.0915 19.8302 18.1942 19.9479 18.2709 20.0821C18.4271 20.3542 18.4691 20.6706 18.3873 20.9729C18.3683 21.0427 18.3673 21.1163 18.3846 21.1866C18.4018 21.2569 18.4366 21.3217 18.4858 21.3748C18.535 21.428 18.5969 21.4677 18.6657 21.4903C18.7345 21.5129 18.8079 21.5176 18.879 21.504C18.9585 21.4892 19.0322 21.4524 19.0918 21.3978C19.1513 21.3432 19.1943 21.273 19.2159 21.1951C19.2859 20.9378 19.3042 20.6692 19.2697 20.4048C19.2352 20.1404 19.1487 19.8854 19.0151 19.6547C18.8821 19.4232 18.7046 19.2203 18.4928 19.0577C18.2811 18.8951 18.0393 18.7759 17.7814 18.707Z"/>
</mask>
<path d="M16.8849 18.6707L17.0678 19.6539L17.0679 19.6539L16.8849 18.6707ZM15.2872 20.1381L14.3231 19.8724L14.321 19.8801L15.2872 20.1381ZM15.5899 20.6614L15.3321 21.6275L15.343 21.6305L15.3541 21.6332L15.5899 20.6614ZM16.1149 20.3599L17.0731 20.6461L17.0767 20.6339L17.0801 20.6216L16.1149 20.3599ZM17.5569 19.5331L17.2949 20.4981L17.3001 20.4995L17.5569 19.5331ZM18.2709 20.0821L17.4028 20.5785L17.4036 20.5799L18.2709 20.0821ZM18.3873 20.9729L19.3521 21.2358L19.3526 21.2341L18.3873 20.9729ZM18.879 21.504L18.6963 20.5208L18.691 20.5218L18.879 21.504ZM19.2159 21.1951L20.1796 21.4623L20.1809 21.4575L19.2159 21.1951ZM19.0151 19.6547L18.1481 20.153L18.1497 20.1557L19.0151 19.6547ZM18.0432 17.742C17.6059 17.6233 17.1475 17.6047 16.702 17.6876L17.0679 19.6539C17.2179 19.6259 17.3722 19.6322 17.5195 19.6721L18.0432 17.742ZM16.702 17.6876C16.1405 17.7921 15.6197 18.0523 15.1991 18.4386L16.5519 19.9117C16.6963 19.7791 16.8751 19.6897 17.0678 19.6539L16.702 17.6876ZM15.1991 18.4386C14.7784 18.825 14.4749 19.3218 14.3231 19.8724L16.2512 20.4038C16.3033 20.2148 16.4075 20.0443 16.5519 19.9117L15.1991 18.4386ZM14.321 19.8801C14.2727 20.0613 14.2604 20.2501 14.2851 20.436L16.2677 20.1731C16.2776 20.2477 16.2727 20.3234 16.2533 20.3961L14.321 19.8801ZM14.2851 20.436C14.3097 20.6218 14.3707 20.801 14.4646 20.9633L16.1957 19.9616C16.2334 20.0267 16.2579 20.0986 16.2677 20.1731L14.2851 20.436ZM14.4646 20.9633C14.5585 21.1255 14.6834 21.2677 14.8323 21.3817L16.0483 19.7938C16.108 19.8395 16.1581 19.8966 16.1957 19.9616L14.4646 20.9633ZM14.8323 21.3817C14.9811 21.4957 15.1509 21.5792 15.3321 21.6275L15.8478 19.6952C15.9204 19.7146 15.9886 19.7481 16.0483 19.7938L14.8323 21.3817ZM15.3541 21.6332C15.7125 21.7201 16.0906 21.6663 16.4105 21.4826L15.4146 19.7482C15.5391 19.6767 15.6863 19.6557 15.8258 19.6896L15.3541 21.6332ZM16.4105 21.4826C16.7304 21.299 16.9675 20.9995 17.0731 20.6461L15.1568 20.0737C15.1978 19.9362 15.2901 19.8196 15.4146 19.7482L16.4105 21.4826ZM17.0801 20.6216C17.0851 20.6031 17.1075 20.56 17.1681 20.5251C17.2279 20.4906 17.2752 20.4928 17.2949 20.4981L17.819 18.568C16.6725 18.2567 15.4563 18.9674 15.1498 20.0983L17.0801 20.6216ZM17.3001 20.4995C17.3216 20.5052 17.3417 20.5151 17.3594 20.5287L18.5786 18.9433C18.3511 18.7683 18.0911 18.6403 17.8138 18.5666L17.3001 20.4995ZM17.3594 20.5287C17.377 20.5423 17.3918 20.5592 17.4028 20.5785L19.139 19.5857C18.9965 19.3366 18.806 19.1182 18.5786 18.9433L17.3594 20.5287ZM17.4036 20.5799C17.4293 20.6246 17.4338 20.6682 17.422 20.7116L19.3526 21.2341C19.5044 20.6729 19.4249 20.0838 19.1382 19.5843L17.4036 20.5799ZM17.4225 20.7099C17.3588 20.9435 17.3557 21.1895 17.4133 21.4247L19.3558 20.9485C19.379 21.043 19.3777 21.1419 19.3521 21.2358L17.4225 20.7099ZM17.4133 21.4247C17.471 21.6599 17.5875 21.8765 17.7521 22.0542L19.2196 20.6955C19.2858 20.7669 19.3326 20.854 19.3558 20.9485L17.4133 21.4247ZM17.7521 22.0542C17.9166 22.2319 18.1236 22.3648 18.3537 22.4404L18.9778 20.5402C19.0703 20.5706 19.1535 20.624 19.2196 20.6955L17.7521 22.0542ZM18.3537 22.4404C18.5837 22.5159 18.8292 22.5317 19.0671 22.4862L18.691 20.5218C18.7866 20.5035 18.8853 20.5099 18.9778 20.5402L18.3537 22.4404ZM19.0618 22.4872C19.3254 22.4382 19.5699 22.3161 19.7676 22.1349L18.4159 20.6608C18.4944 20.5888 18.5916 20.5403 18.6963 20.5208L19.0618 22.4872ZM19.7676 22.1349C19.9652 21.9537 20.108 21.7206 20.1796 21.4623L18.2523 20.928C18.2807 20.8253 18.3374 20.7327 18.4159 20.6608L19.7676 22.1349ZM20.1809 21.4575C20.2855 21.0727 20.3129 20.671 20.2613 20.2755L18.2781 20.5341C18.2955 20.6674 18.2863 20.8029 18.251 20.9327L20.1809 21.4575ZM20.2613 20.2755C20.2098 19.8801 20.0803 19.4988 19.8805 19.1536L18.1497 20.1557C18.2171 20.2721 18.2607 20.4007 18.2781 20.5341L20.2613 20.2755ZM19.8821 19.1563C19.6833 18.8106 19.4182 18.5076 19.102 18.2646L17.8837 19.8508C17.9909 19.9331 18.0808 20.0358 18.1481 20.153L19.8821 19.1563ZM19.102 18.2646C18.7857 18.0217 18.4246 17.8437 18.0393 17.7409L17.5235 19.6732C17.6541 19.7081 17.7765 19.7684 17.8837 19.8508L19.102 18.2646Z" fill="#008132" mask="url(#path-6-inside-3_2_357)"/>
<mask id="path-8-inside-4_2_357" fill="white">
<path d="M16.1219 15.5523C15.5544 13.8915 13.7327 12.9968 12.0479 13.5538C10.3639 14.1116 9.45654 15.911 10.0222 17.57C10.5884 19.2334 12.411 20.1263 14.0971 19.5685C15.7784 19.012 16.6858 17.2126 16.1219 15.5523Z"/>
</mask>
<path d="M16.1219 15.5523C15.5544 13.8915 13.7327 12.9968 12.0479 13.5538C10.3639 14.1116 9.45654 15.911 10.0222 17.57C10.5884 19.2334 12.411 20.1263 14.0971 19.5685C15.7784 19.012 16.6858 17.2126 16.1219 15.5523Z" fill="#EAFFF2"/>
<path d="M12.0479 13.5538L11.734 12.6043L11.7334 12.6045L12.0479 13.5538ZM10.0222 17.57L10.9689 17.2478L10.9687 17.2473L10.0222 17.57ZM14.0971 19.5685L14.4112 20.5179L14.4113 20.5179L14.0971 19.5685ZM17.0681 15.2289C16.3204 13.0405 13.9306 11.8782 11.734 12.6043L12.3617 14.5032C13.5347 14.1155 14.7884 14.7425 15.1756 15.8756L17.0681 15.2289ZM11.7334 12.6045C9.53269 13.3335 8.32708 15.6971 9.07574 17.8927L10.9687 17.2473C10.586 16.1249 11.1951 14.8897 12.3623 14.503L11.7334 12.6045ZM9.07556 17.8922C9.82204 20.0855 12.2142 21.2447 14.4112 20.5179L13.783 18.6191C12.6077 19.0079 11.3547 18.3813 10.9689 17.2478L9.07556 17.8922ZM14.4113 20.5179C16.6106 19.7899 17.8144 17.4259 17.0687 15.2307L15.175 15.8739C15.5572 16.9992 14.9462 18.2341 13.7829 18.6192L14.4113 20.5179Z" fill="#008132" mask="url(#path-8-inside-4_2_357)"/>
<mask id="path-10-inside-5_2_357" fill="white">
<path d="M17.5 17.0739C17.84 18.071 18.9355 18.6087 19.95 18.2735C20.9607 17.9375 21.5045 16.8578 21.1667 15.8599C20.8259 14.8628 19.7295 14.3251 18.7193 14.6585C17.707 14.9945 17.1618 16.0747 17.5 17.0739Z"/>
</mask>
<path d="M17.5 17.0739C17.84 18.071 18.9355 18.6087 19.95 18.2735C20.9607 17.9375 21.5045 16.8578 21.1667 15.8599C20.8259 14.8628 19.7295 14.3251 18.7193 14.6585C17.707 14.9945 17.1618 16.0747 17.5 17.0739Z" fill="#EAFFF2"/>
<path d="M19.95 18.2735L20.2637 19.2231L20.2655 19.2225L19.95 18.2735ZM21.1667 15.8599L22.1139 15.5393L22.113 15.5364L21.1667 15.8599ZM18.7193 14.6585L18.406 13.7089L18.4043 13.7094L18.7193 14.6585ZM16.5535 17.3966C17.0741 18.9235 18.7389 19.7267 20.2637 19.2231L19.6364 17.324C19.132 17.4906 18.6058 17.2185 18.4465 16.7512L16.5535 17.3966ZM20.2655 19.2225C21.7931 18.7146 22.6325 17.0714 22.1139 15.5393L20.2195 16.1804C20.3765 16.6442 20.1282 17.1605 19.6345 17.3246L20.2655 19.2225ZM22.113 15.5364C21.5918 14.0116 19.9275 13.2067 18.406 13.7089L19.0327 15.6081C19.5315 15.4435 20.0601 15.714 20.2205 16.1833L22.113 15.5364ZM18.4043 13.7094C16.8754 14.2168 16.0335 15.8602 16.5528 17.3945L18.4472 16.7533C18.2901 16.2891 18.5385 15.7721 19.0343 15.6076L18.4043 13.7094Z" fill="#008132" mask="url(#path-10-inside-5_2_357)"/>
<path d="M11.0229 11.3944L11.023 11.3944C12.1393 11.0243 12.7336 9.83448 12.3635 8.74493C11.9886 7.6523 10.7831 7.05499 9.66092 7.42572L11.0229 11.3944ZM11.0229 11.3944C9.90097 11.7666 8.6945 11.1696 8.31988 10.0747M11.0229 11.3944L8.31988 10.0747M8.31988 10.0747C7.95074 8.98479 8.54528 7.79513 9.6607 7.4258L8.31988 10.0747Z" fill="#EAFFF2" stroke="#008132"/>
<mask id="path-13-inside-6_2_357" fill="white">
<path d="M9.01639 19.9421C8.53689 18.5439 7.00127 17.7901 5.58289 18.2569C4.16802 18.7281 3.40371 20.2423 3.87839 21.6396C4.35396 23.0423 5.88827 23.7934 7.31058 23.3236C8.72633 22.8533 9.4902 21.3391 9.01639 19.9421Z"/>
</mask>
<path d="M9.01639 19.9421C8.53689 18.5439 7.00127 17.7901 5.58289 18.2569C4.16802 18.7281 3.40371 20.2423 3.87839 21.6396C4.35396 23.0423 5.88827 23.7934 7.31058 23.3236C8.72633 22.8533 9.4902 21.3391 9.01639 19.9421Z" fill="#EAFFF2"/>
<path d="M5.58289 18.2569L5.27027 17.307L5.26693 17.3081L5.58289 18.2569ZM3.87839 21.6396L4.82544 21.3185L4.82525 21.318L3.87839 21.6396ZM7.31058 23.3236L7.62427 24.2731L7.62584 24.2726L7.31058 23.3236ZM9.96232 19.6177C9.30224 17.6929 7.19983 16.6719 5.27027 17.307L5.89551 19.2068C6.80271 18.9082 7.77155 19.3948 8.07047 20.2665L9.96232 19.6177ZM5.26693 17.3081C3.33671 17.9509 2.27479 20.028 2.93153 21.9613L4.82525 21.318C4.53262 20.4565 4.99933 19.5052 5.89886 19.2056L5.26693 17.3081ZM2.93135 21.9607C3.58721 23.8951 5.69216 24.9114 7.62427 24.2731L6.99689 22.374C6.08437 22.6755 5.12071 22.1894 4.82544 21.3185L2.93135 21.9607ZM7.62584 24.2726C9.5578 23.6308 10.6188 21.5534 9.9634 19.6209L8.06938 20.2633C8.36157 21.1248 7.89486 22.0757 6.99532 22.3746L7.62584 24.2726Z" fill="#008132" mask="url(#path-13-inside-6_2_357)"/>
</g>
<defs>
<clipPath id="clip0_2_357">
<rect width="28" height="28" fill="white"/>
</clipPath>
</defs>
</svg>
